<svg xmlns="http://www.w3.org/2000/svg" width="39" height="38" viewBox="0 0 39 38"><defs><style>.a{fill:#27313b;opacity:0.998;}.b{fill:#fff;}</style></defs><g transform="translate(-23 -972)"><rect class="a" width="39" height="38" rx="10" transform="translate(23 972)"/><g transform="translate(30.15 980.91)"><path class="b" d="M14.045,3.37a2.8,2.8,0,1,1-2.8,2.8,2.8,2.8,0,0,1,2.8-2.8m0-1.12a3.92,3.92,0,1,0,3.92,3.92A3.92,3.92,0,0,0,14.045,2.25Z" transform="translate(-1.695)"/><path class="b" d="M17.95,26.97H16.83v-2.8a2.8,2.8,0,0,0-2.8-2.8H10.67a2.8,2.8,0,0,0-2.8,2.8v2.8H6.75v-2.8a3.92,3.92,0,0,1,3.92-3.92h3.36a3.92,3.92,0,0,1,3.92,3.92Z" transform="translate(0 -9.04)"/></g></g></svg>